<?xml version="1.0" encoding="UTF-8" standalone="no"?>
<svg
   xmlns:dc="http://purl.org/dc/elements/1.1/"
   xmlns:cc="http://creativecommons.org/ns#"
   xmlns:rdf="http://www.w3.org/1999/02/22-rdf-syntax-ns#"
   xmlns:svg="http://www.w3.org/2000/svg"
   xmlns="http://www.w3.org/2000/svg"
   xmlns:sodipodi="http://sodipodi.sourceforge.net/DTD/sodipodi-0.dtd"
   xmlns:inkscape="http://www.inkscape.org/namespaces/inkscape"
   data-v-423bf9ae=""
   viewBox="0 0 479 90"
   class="iconLeft"
   version="1.1"
   id="svg10"
   sodipodi:docname="default-monochrome.svg"
   inkscape:version="1.0.1 (3bc2e813f5, 2020-09-07)"
   inkscape:export-filename="C:\Users\yerzh\Downloads\Moniment-logo\default-monochrome.png"
   inkscape:export-xdpi="400"
   inkscape:export-ydpi="400">
  <metadata
     id="metadata16">
    <rdf:RDF>
      <cc:Work
         rdf:about="">
        <dc:format>image/svg+xml</dc:format>
        <dc:type
           rdf:resource="http://purl.org/dc/dcmitype/StillImage" />
      </cc:Work>
    </rdf:RDF>
  </metadata>
  <defs
     id="defs14" />
  <sodipodi:namedview
     pagecolor="#ffffff"
     bordercolor="#666666"
     borderopacity="1"
     objecttolerance="10"
     gridtolerance="10"
     guidetolerance="10"
     inkscape:pageopacity="0"
     inkscape:pageshadow="2"
     inkscape:window-width="1920"
     inkscape:window-height="1001"
     id="namedview12"
     showgrid="false"
     inkscape:zoom="2.7640919"
     inkscape:cx="164.97281"
     inkscape:cy="45"
     inkscape:window-x="-9"
     inkscape:window-y="-9"
     inkscape:window-maximized="1"
     inkscape:current-layer="svg10" />
  <!---->
  <!---->
  <!---->
  <g
     data-v-423bf9ae=""
     id="527849fe-d952-4a9e-9b18-0921b8a9e795"
     fill="#EAE6FE"
     transform="matrix(6.073546886444092,0,0,6.073546886444092,102.88255310058594,-6.020166397094727)"
     style="fill:#987bfe;fill-opacity:1">
    <path
       d="M9.36 3.82L5.92 8.65L2.49 3.82L1.17 3.82L1.17 13.15L2.64 13.15L2.64 6.31L5.94 10.76L9.22 6.31L9.22 13.15L10.69 13.15L10.69 3.82ZM15.93 13.34C18.01 13.34 19.47 11.81 19.47 9.84C19.47 7.89 18.01 6.36 15.93 6.36C13.81 6.36 12.37 7.89 12.37 9.84C12.37 11.81 13.81 13.34 15.93 13.34ZM15.93 12.13C14.70 12.13 13.84 11.14 13.84 9.84C13.84 8.56 14.70 7.57 15.93 7.57C17.14 7.57 18.00 8.56 18.00 9.84C18.00 11.14 17.14 12.13 15.93 12.13ZM24.31 6.36C23.38 6.36 22.68 6.75 22.27 7.32L22.09 6.53L20.85 6.53L20.85 13.15L22.27 13.15L22.27 9.11C22.39 7.95 23.17 7.57 23.92 7.57C24.94 7.57 25.38 8.30 25.38 9.38L25.38 13.15L26.79 13.15L26.79 9.06C26.79 7 25.46 6.36 24.31 6.36ZM29.31 5.26C29.82 5.26 30.23 4.86 30.23 4.36C30.23 3.86 29.82 3.46 29.31 3.46C28.82 3.46 28.41 3.86 28.41 4.36C28.41 4.86 28.82 5.26 29.31 5.26ZM28.64 13.15L30.03 13.15L30.03 6.53L28.64 6.53ZM39.26 6.36C38.09 6.36 37.51 6.80 37.09 7.41C36.66 6.66 35.93 6.36 35.17 6.36C34.42 6.36 33.73 6.72 33.35 7.38L33.19 6.53L31.95 6.53L31.95 13.15L33.37 13.15L33.37 9.26C33.45 8.15 33.98 7.57 34.83 7.57C35.73 7.57 36.09 8.31 36.09 9.39L36.09 13.15L37.51 13.15L37.51 9.60C37.51 8.30 38.03 7.57 38.95 7.57C39.87 7.57 40.24 8.31 40.24 9.38L40.24 13.15L41.65 13.15L41.65 9.28C41.65 7.12 40.51 6.36 39.26 6.36ZM49.63 9.70C49.63 7.73 48.30 6.36 46.38 6.36C44.39 6.36 42.96 7.89 42.96 9.84C42.96 11.80 44.38 13.31 46.55 13.31C47.69 13.31 48.65 12.92 49.25 12.25L48.27 11.46C47.85 11.94 47.28 12.19 46.54 12.19C45.30 12.19 44.55 11.33 44.45 10.15L49.63 10.15ZM46.38 7.50C47.41 7.50 48.08 8.12 48.23 9.17L44.51 9.17C44.71 8.17 45.40 7.50 46.38 7.50ZM54.48 6.36C53.55 6.36 52.85 6.75 52.44 7.32L52.27 6.53L51.03 6.53L51.03 13.15L52.44 13.15L52.44 9.11C52.56 7.95 53.35 7.57 54.09 7.57C55.11 7.57 55.55 8.30 55.55 9.38L55.55 13.15L56.96 13.15L56.96 9.06C56.96 7 55.64 6.36 54.48 6.36ZM61.79 6.53L60.38 6.53L60.38 4.64L58.98 4.64L58.98 6.53L58.10 6.53L58.10 7.67L58.98 7.67L58.98 13.15L60.39 13.15L60.38 7.67L61.79 7.67Z"
       id="path2"
       style="fill:#987bfe;fill-opacity:1" />
  </g>
  <!---->
  <g
     data-v-423bf9ae=""
     id="7c699096-166e-43db-91ed-d034bd0707d4"
     transform="matrix(2.8125,0,0,2.8125,0,0)"
     stroke="none"
     fill="#EAE6FE"
     style="fill:#987bfe;fill-opacity:1">
    <circle
       cx="16"
       cy="16.021"
       r="8.066"
       id="circle5"
       style="fill:#987bfe;fill-opacity:1" />
    <path
       d="M32 0H0v32h32V0zM16 26.086c-5.551 0-10.066-4.516-10.066-10.065 0-5.55 4.516-10.066 10.066-10.066 5.55 0 10.065 4.516 10.065 10.066.001 5.55-4.515 10.065-10.065 10.065z"
       id="path7"
       style="fill:#987bfe;fill-opacity:1" />
  </g>
  <!---->
</svg>
